<?xml version="1.0" encoding="UTF-8" standalone="no"?>
<svg
   aria-hidden="true"
   focusable="false"
   data-prefix="fas"
   data-icon="edit"
   class="svg-inline--fa fa-edit fa-w-18"
   role="img"
   viewBox="0 0 512 512"
   version="1.1"
   id="svg1"
   sodipodi:docname="edit.svg"
   width="512"
   height="512"
   inkscape:version="1.3 (0e150ed6c4, 2023-07-21)"
   xmlns:inkscape="http://www.inkscape.org/namespaces/inkscape"
   xmlns:sodipodi="http://sodipodi.sourceforge.net/DTD/sodipodi-0.dtd"
   xmlns="http://www.w3.org/2000/svg"
   xmlns:svg="http://www.w3.org/2000/svg">
  <defs
     id="defs1" />
  <sodipodi:namedview
     id="namedview1"
     pagecolor="#ffffff"
     bordercolor="#666666"
     borderopacity="1.0"
     inkscape:showpageshadow="2"
     inkscape:pageopacity="0.0"
     inkscape:pagecheckerboard="0"
     inkscape:deskcolor="#d1d1d1"
     inkscape:zoom="1.2588434"
     inkscape:cx="577.51424"
     inkscape:cy="226.39829"
     inkscape:window-width="2277"
     inkscape:window-height="994"
     inkscape:window-x="4682"
     inkscape:window-y="791"
     inkscape:window-maximized="0"
     inkscape:current-layer="svg1" />
  <path
     fill="currentColor"
     d="m 357.86664,75.066677 80.17777,80.177783 c 3.37778,3.37778 3.37778,8.8889 0,12.26668 l -194.13332,194.13334 -82.48889,9.15556 c -11.02222,1.24445 -20.35556,-8.08889 -19.11111,-19.11111 l 9.15555,-82.4889 194.13335,-194.133353 c 3.37775,-3.377782 8.88887,-3.377782 12.26665,0 z M 501.86665,54.711112 458.48887,11.333335 c -13.51112,-13.5111133 -35.46668,-13.5111133 -49.06668,0 l -31.46666,31.466674 c -3.37778,3.377769 -3.37778,8.888884 0,12.266663 l 80.17777,80.177788 c 3.37778,3.37778 8.8889,3.37778 12.26668,0 l 31.46667,-31.46666 c 13.5111,-13.600016 13.5111,-35.555571 0,-49.066688 z M 341.33331,308.84448 v 90.48889 H 56.888866 V 114.88891 H 261.15554 c 2.84444,0 5.5111,-1.15555 7.55555,-3.11111 l 35.55555,-35.555568 c 6.75556,-6.755561 1.95556,-18.222228 -7.55555,-18.222228 H 42.666644 c -23.555557,0 -42.666666289197,19.111122 -42.666666289197,42.666686 V 413.5556 c 0,23.55555 19.111109289197,42.66667 42.666666289197,42.66667 H 355.55554 c 23.55555,0 42.66667,-19.11112 42.66667,-42.66667 V 273.28892 c 0,-9.51111 -11.46667,-14.22222 -18.22222,-7.55555 l -35.55556,35.55556 c -1.95556,2.04443 -3.11112,4.7111 -3.11112,7.55555 z"
     id="path1"
     style="stroke-width:0.999996" />
</svg>
